<svg fill="#000000" width="24px" height="24px" viewBox="0 0 0.72 0.72" xmlns="http://www.w3.org/2000/svg">
  <path d="m0.674 0.565 -0.03 -0.116 -0.095 -0.348a0.03 0.03 0 0 0 -0.037 -0.021l-0.116 0.03a0.03 0.03 0 0 0 -0.022 -0.01h-0.3a0.03 0.03 0 0 0 -0.03 0.03v0.48a0.03 0.03 0 0 0 0.03 0.03h0.3a0.03 0.03 0 0 0 0.03 -0.03v-0.24l0.066 0.247a0.03 0.03 0 0 0 0.03 0.022 0.036 0.036 0 0 0 0.008 0L0.654 0.6a0.03 0.03 0 0 0 0.018 -0.014 0.032 0.032 0 0 0 0.002 -0.021m-0.48 0.017h-0.09v-0.06h0.09Zm0 -0.12h-0.09v-0.18h0.09Zm0 -0.24h-0.09v-0.06h0.09Zm0.15 0.36h-0.09v-0.06h0.09Zm0 -0.12h-0.09v-0.18h0.09Zm0 -0.24h-0.09v-0.06h0.09Zm0.068 -0.052 0.087 -0.023 0.016 0.058 -0.087 0.023Zm0.078 0.29 -0.046 -0.174 0.087 -0.023 0.046 0.174Zm0.03 0.116 -0.016 -0.058 0.087 -0.023 0.016 0.058Z"/>
</svg>
