<svg height="24px" width="24px" version="1.1" id="_x32_" xmlns="http://www.w3.org/2000/svg" xmlns:xlink="http://www.w3.org/1999/xlink" viewBox="0 0 15.36 15.36" xml:space="preserve">
  <style type="text/css">
    .st0{fill:#000000;}
  </style>
  <g>
    <path class="st0" d="m11.587 2.369 -1.496 1.496 0.139 0.144c-0.099 0.08 -0.199 0.158 -0.297 0.227 -0.157 0.112 -0.308 0.202 -0.41 0.244 -0.007 0.003 -0.034 0.011 -0.09 0.01 -0.088 0.001 -0.235 -0.021 -0.416 -0.049 -0.181 -0.027 -0.398 -0.057 -0.643 -0.057a2.592 2.592 0 0 0 -0.696 0.093 2.61 2.61 0 0 0 -0.694 -0.093c-0.245 0 -0.462 0.03 -0.643 0.057 -0.181 0.028 -0.328 0.05 -0.416 0.049 -0.055 0 -0.083 -0.008 -0.089 -0.01 -0.109 -0.045 -0.273 -0.144 -0.443 -0.267 -0.088 -0.064 -0.177 -0.133 -0.265 -0.205l0.139 -0.144 -1.496 -1.496L0 6.276l1.496 1.496 0.438 -0.453 0.966 0.844c0.027 0.162 0.078 0.314 0.137 0.459a3.57 3.57 0 0 0 0.123 0.264c-0.093 0.155 -0.144 0.331 -0.144 0.51a0.984 0.984 0 0 0 0.149 0.52c0.152 0.245 0.397 0.399 0.66 0.448a0.984 0.984 0 0 0 0.148 0.51c0.187 0.3 0.51 0.466 0.839 0.466 0.013 0 0.026 -0.002 0.038 -0.002 0.017 0.14 0.062 0.279 0.141 0.405 0.187 0.3 0.51 0.466 0.839 0.466 0.033 0 0.065 -0.003 0.098 -0.007 0.016 0.126 0.057 0.251 0.128 0.364a0.898 0.898 0 0 0 0.763 0.424 0.896 0.896 0 0 0 0.474 -0.135l0.448 -0.279c0.088 0.057 0.181 0.107 0.278 0.148 0.181 0.076 0.377 0.123 0.581 0.123 0.223 0.001 0.459 -0.06 0.662 -0.203 0.132 -0.092 0.244 -0.219 0.336 -0.368 0.014 0 0.026 0.003 0.04 0.003a1.005 1.005 0 0 0 0.296 -0.045c0.102 -0.031 0.203 -0.077 0.311 -0.139 0.257 -0.145 0.411 -0.358 0.486 -0.541 0.017 -0.04 0.029 -0.078 0.039 -0.114 0.062 -0.02 0.122 -0.044 0.176 -0.075 0.199 -0.114 0.328 -0.288 0.408 -0.463 0.08 -0.176 0.115 -0.36 0.116 -0.536 0 -0.017 -0.002 -0.034 -0.003 -0.051a1.239 1.239 0 0 0 0.346 -0.214c0.102 -0.089 0.188 -0.193 0.251 -0.312 0.063 -0.118 0.106 -0.253 0.106 -0.401a0.708 0.708 0 0 0 -0.063 -0.293c-0.014 -0.03 -0.034 -0.058 -0.052 -0.086 0.076 -0.136 0.153 -0.289 0.217 -0.454 0.048 -0.125 0.088 -0.256 0.111 -0.394l1.008 -0.879 0.472 0.489L15.36 6.276zm-7.425 7.244 -0.017 0.011a0.267 0.267 0 0 1 -0.141 0.041c-0.091 0 -0.177 -0.045 -0.228 -0.127 -0.028 -0.045 -0.041 -0.093 -0.041 -0.141 0 -0.091 0.044 -0.177 0.126 -0.228l0.593 -0.368a0.267 0.267 0 0 1 0.141 -0.041c0.091 0.001 0.177 0.044 0.229 0.127l0.305 -0.19 -0.305 0.19a0.265 0.265 0 0 1 0.041 0.141 0.271 0.271 0 0 1 -0.064 0.173L4.291 9.516c-0.046 0.029 -0.089 0.062 -0.128 0.097m0.791 0.969c-0.045 0.028 -0.092 0.041 -0.141 0.041 -0.091 0 -0.178 -0.044 -0.229 -0.127a0.267 0.267 0 0 1 -0.041 -0.141 0.268 0.268 0 0 1 0.064 -0.172l0.509 -0.317c0.046 -0.029 0.088 -0.062 0.128 -0.096l0.019 -0.011a0.263 0.263 0 0 1 0.141 -0.041c0.091 0 0.177 0.044 0.229 0.127a0.265 0.265 0 0 1 0.041 0.141c0 0.09 -0.044 0.177 -0.127 0.229zm1.61 0.501 -0.592 0.368a0.263 0.263 0 0 1 -0.141 0.041c-0.091 0 -0.177 -0.044 -0.228 -0.127a0.268 0.268 0 0 1 -0.041 -0.141c0.001 -0.091 0.044 -0.177 0.126 -0.228l0.593 -0.368a0.261 0.261 0 0 1 0.141 -0.04c0.091 0 0.177 0.044 0.229 0.127a0.267 0.267 0 0 1 0.041 0.141c-0.001 0.09 -0.044 0.177 -0.127 0.229m0.917 0.6c0.019 0.03 0.027 0.061 0.027 0.094 0 0.061 -0.03 0.119 -0.085 0.153l-0.508 0.316a0.172 0.172 0 0 1 -0.094 0.027c-0.061 0 -0.119 -0.03 -0.153 -0.085a0.178 0.178 0 0 1 -0.027 -0.094c0.001 -0.061 0.03 -0.119 0.085 -0.153h0l0.509 -0.316c0.031 -0.019 0.062 -0.027 0.094 -0.027 0.061 0 0.119 0.03 0.153 0.085l0.305 -0.189zm3.952 -2.231c-0.026 0.05 -0.086 0.116 -0.161 0.162 -0.075 0.047 -0.163 0.074 -0.247 0.074 -0.03 0 -0.059 0.005 -0.087 0.012a0.99 0.99 0 0 1 -0.153 -0.047c-0.156 -0.061 -0.302 -0.16 -0.406 -0.243a1.92 1.92 0 0 1 -0.12 -0.105l-0.03 -0.03 -0.007 -0.007 -0.001 -0.001h0c-0.101 -0.109 -0.271 -0.117 -0.38 -0.016s-0.117 0.271 -0.016 0.381c0.009 0.009 0.144 0.157 0.366 0.309 0.111 0.076 0.244 0.154 0.397 0.214 0.035 0.014 0.072 0.027 0.11 0.039 0.01 0.024 0.024 0.046 0.04 0.067l-0.001 0.001c0.002 0.001 0.017 0.048 0.015 0.107 0.002 0.099 -0.034 0.229 -0.086 0.301 -0.025 0.037 -0.051 0.06 -0.076 0.074 -0.026 0.014 -0.051 0.023 -0.1 0.024l-0.017 0c-0.01 0 -0.02 0.001 -0.03 0.002h-0.001c-0.234 0.001 -0.451 -0.099 -0.612 -0.209a1.53 1.53 0 0 1 -0.187 -0.15 1.62 1.62 0 0 1 -0.048 -0.047l-0.01 -0.011 -0.002 -0.002h0a0.269 0.269 0 0 0 -0.379 -0.027 0.269 0.269 0 0 0 -0.027 0.38l0 0c0.01 0.012 0.135 0.155 0.351 0.302 0.142 0.096 0.328 0.196 0.549 0.254 -0.002 0.006 -0.004 0.013 -0.007 0.019 -0.028 0.064 -0.069 0.13 -0.179 0.194 -0.074 0.042 -0.128 0.065 -0.165 0.076 -0.038 0.011 -0.059 0.013 -0.085 0.014 -0.035 0.001 -0.087 -0.007 -0.175 -0.025 -0.016 -0.003 -0.032 -0.004 -0.048 -0.005 -0.006 -0.002 -0.011 -0.005 -0.018 -0.008 -0.089 -0.042 -0.198 -0.118 -0.278 -0.182a2.43 2.43 0 0 1 -0.098 -0.082l-0.026 -0.024 -0.006 -0.006 -0.001 -0.001c-0.108 -0.103 -0.278 -0.099 -0.381 0.009 -0.103 0.108 -0.099 0.278 0.009 0.381 0.006 0.005 0.119 0.114 0.278 0.228a2.4 2.4 0 0 0 0.091 0.06c-0.044 0.07 -0.09 0.118 -0.135 0.15 -0.072 0.049 -0.15 0.073 -0.25 0.073 -0.09 0 -0.196 -0.022 -0.302 -0.067 -0.035 -0.015 -0.07 -0.035 -0.104 -0.055 0.02 -0.076 0.031 -0.154 0.031 -0.232a0.895 0.895 0 0 0 -0.135 -0.474c-0.155 -0.249 -0.413 -0.395 -0.684 -0.419 0 -0.01 0.002 -0.019 0.002 -0.03a0.986 0.986 0 0 0 -0.149 -0.52v0.001a0.986 0.986 0 0 0 -0.839 -0.467c-0.013 0 -0.026 0.002 -0.038 0.003 -0.017 -0.14 -0.062 -0.278 -0.141 -0.405h0c-0.152 -0.246 -0.397 -0.4 -0.661 -0.448a0.984 0.984 0 0 0 -0.148 -0.51h0c-0.187 -0.3 -0.51 -0.467 -0.839 -0.466a0.988 0.988 0 0 0 -0.52 0.149l-0.346 0.215c-0.008 -0.019 -0.019 -0.038 -0.026 -0.057 -0.06 -0.144 -0.098 -0.286 -0.102 -0.384l-0.008 -0.152 -1.158 -1.011 2.195 -2.274c0.112 0.092 0.227 0.183 0.345 0.269 0.196 0.141 0.39 0.265 0.588 0.349 0.127 0.052 0.251 0.065 0.365 0.066 0.182 -0.001 0.349 -0.032 0.523 -0.057 0.011 -0.002 0.023 -0.003 0.034 -0.005 -0.239 0.205 -0.448 0.427 -0.624 0.634 -0.149 0.174 -0.274 0.339 -0.373 0.473 -0.098 0.133 -0.174 0.241 -0.207 0.283 -0.163 0.213 -0.234 0.467 -0.235 0.722 0.001 0.237 0.064 0.484 0.227 0.693a0.903 0.903 0 0 0 0.319 0.255c0.129 0.062 0.277 0.094 0.431 0.094 0.191 -0.001 0.391 -0.047 0.603 -0.136 0.665 -0.281 1.351 -0.469 1.868 -0.585 0.258 -0.058 0.474 -0.098 0.624 -0.123l0.075 -0.012 2.258 1.947 0.001 0 0.001 0.001c0 0.007 -0.004 0.027 -0.02 0.057m0.261 -1.64 -0.008 0.152c-0.004 0.087 -0.034 0.209 -0.083 0.336 -0.025 0.066 -0.056 0.133 -0.088 0.199l-1.978 -1.705a0.361 0.361 0 0 0 -0.28 -0.084c-0.018 0.003 -1.468 0.185 -2.911 0.794 -0.144 0.061 -0.251 0.08 -0.324 0.079 -0.059 0 -0.095 -0.01 -0.121 -0.023 -0.039 -0.019 -0.066 -0.045 -0.093 -0.096 -0.026 -0.05 -0.044 -0.124 -0.044 -0.202 -0.001 -0.112 0.039 -0.226 0.083 -0.28 0.056 -0.072 0.124 -0.171 0.218 -0.298 0.14 -0.189 0.33 -0.434 0.556 -0.673 0.226 -0.238 0.489 -0.469 0.764 -0.631 0.373 -0.219 0.69 -0.274 0.991 -0.275 0.185 0 0.363 0.023 0.536 0.049 0.174 0.026 0.341 0.056 0.523 0.057 0.113 0 0.237 -0.013 0.363 -0.065l0.002 0c0.198 -0.083 0.392 -0.208 0.588 -0.349 0.117 -0.085 0.233 -0.177 0.345 -0.268l2.161 2.238z"/>
  </g>
</svg>
