<svg fill="#000000" width="24px" height="24px" viewBox="0 0 0.72 0.72" xmlns="http://www.w3.org/2000/svg" data-name="Layer 1">
  <path d="M0.52 0.164a0.036 0.036 0 1 0 0.036 0.036 0.036 0.036 0 0 0 -0.036 -0.036m0.138 0.073a0.228 0.228 0 0 0 -0.014 -0.073 0.147 0.147 0 0 0 -0.035 -0.053 0.141 0.141 0 0 0 -0.053 -0.034 0.219 0.219 0 0 0 -0.073 -0.014C0.452 0.06 0.442 0.06 0.36 0.06s-0.092 0 -0.124 0.002a0.219 0.219 0 0 0 -0.073 0.014 0.144 0.144 0 0 0 -0.053 0.034 0.141 0.141 0 0 0 -0.034 0.053 0.219 0.219 0 0 0 -0.014 0.073C0.06 0.268 0.06 0.278 0.06 0.36s0 0.092 0.002 0.124a0.219 0.219 0 0 0 0.014 0.073 0.141 0.141 0 0 0 0.034 0.053 0.144 0.144 0 0 0 0.053 0.034 0.219 0.219 0 0 0 0.073 0.014C0.268 0.66 0.278 0.66 0.36 0.66s0.092 0 0.124 -0.002a0.219 0.219 0 0 0 0.073 -0.014 0.141 0.141 0 0 0 0.053 -0.034 0.145 0.145 0 0 0 0.035 -0.053 0.228 0.228 0 0 0 0.014 -0.073c0 -0.032 0.002 -0.042 0.002 -0.124s0 -0.092 -0.002 -0.124M0.604 0.48a0.168 0.168 0 0 1 -0.01 0.056 0.092 0.092 0 0 1 -0.022 0.034 0.096 0.096 0 0 1 -0.034 0.022 0.168 0.168 0 0 1 -0.056 0.01c-0.03 0.002 -0.041 0.002 -0.12 0.002s-0.09 0 -0.12 -0.002a0.171 0.171 0 0 1 -0.058 -0.009 0.099 0.099 0 0 1 -0.033 -0.022 0.09 0.09 0 0 1 -0.022 -0.034 0.165 0.165 0 0 1 -0.012 -0.057c0 -0.03 -0.002 -0.041 -0.002 -0.12s0 -0.09 0.002 -0.12a0.165 0.165 0 0 1 0.01 -0.057A0.09 0.09 0 0 1 0.15 0.15a0.093 0.093 0 0 1 0.033 -0.024A0.171 0.171 0 0 1 0.24 0.116c0.03 0 0.041 -0.002 0.12 -0.002s0.09 0 0.12 0.002a0.168 0.168 0 0 1 0.056 0.01 0.092 0.092 0 0 1 0.036 0.024 0.093 0.093 0 0 1 0.022 0.033 0.168 0.168 0 0 1 0.01 0.057c0.002 0.03 0.002 0.041 0.002 0.12s0 0.09 -0.002 0.12M0.36 0.206A0.154 0.154 0 1 0 0.514 0.36 0.154 0.154 0 0 0 0.36 0.206m0 0.254A0.1 0.1 0 1 1 0.46 0.36 0.1 0.1 0 0 1 0.36 0.46"/>
</svg>
